<svg version="1.1" id="Layer_1" xmlns="http://www.w3.org/2000/svg" xmlns:xlink="http://www.w3.org/1999/xlink" x="0px" y="0px"
	 width="100%" viewBox="0 0 6250 6250" enable-background="new 0 0 6250 6250" xml:space="preserve">
<path fill="#000000" opacity="1.000000" stroke="none" 
	d="
M4132.000000,6256.000000 
	C2754.666992,6256.000000 1379.334106,6256.000000 4.000923,6256.000000 
	C4.000615,4172.000977 4.000615,2088.001953 4.000308,4.002320 
	C2087.998291,4.001547 4171.996582,4.001547 6255.996094,4.000773 
	C6255.997559,2087.997803 6255.997559,4171.995605 6255.999023,6255.996582 
	C5548.666504,6256.000000 4841.333496,6256.000000 4132.000000,6256.000000 
M2044.039917,5452.018555 
	C2044.039917,5452.018555 2043.994385,5451.899902 2045.829590,5451.258789 
	C2046.992920,5450.457031 2047.579590,5449.349121 2047.915894,5447.937012 
	C2047.915894,5447.937012 2047.911987,5447.610352 2049.776123,5447.150879 
	C2051.007568,5446.402832 2051.556641,5445.311523 2051.876221,5443.817871 
	C2051.876221,5443.817871 2051.807617,5443.366699 2053.470459,5442.820312 
	C2054.526123,5442.086426 2055.019043,5441.077637 2055.779541,5439.750977 
	C2055.779541,5439.750977 2055.754150,5438.919922 2057.351318,5438.570312 
	C2058.401123,5437.935547 2058.866943,5437.007324 2059.685059,5435.531250 
	C2059.685059,5435.531250 2059.723145,5434.561523 2061.041504,5434.226074 
	C2061.872314,5433.645508 2062.220459,5432.853027 2063.236084,5431.419922 
	C2063.236084,5431.419922 2063.511719,5430.223633 2065.572998,5429.171875 
	C2067.835449,5426.135254 2070.097900,5423.098145 2074.551758,5419.217773 
	C2076.345215,5416.727539 2078.138672,5414.237305 2081.775879,5411.194824 
	C2082.985107,5410.446289 2083.568115,5409.361328 2083.866455,5407.935547 
	C2083.866455,5407.935547 2083.855713,5407.594238 2086.301758,5406.666504 
	C2092.331055,5399.203125 2098.360352,5391.740234 2104.031250,5384.061523 
	C2104.031250,5384.061523 2104.320312,5384.364258 2106.795410,5383.338867 
	C2109.539551,5380.434082 2112.350342,5377.588379 2115.018555,5374.614746 
	C2266.737793,5205.500488 2418.428955,5036.360840 2570.158447,4867.255371 
	C2778.846680,4634.668945 2987.580078,4402.123047 3196.262207,4169.531738 
	C3405.832764,3935.950195 3615.358643,3702.329590 3824.915771,3468.736328 
	C3987.755859,3287.218750 4150.611328,3105.715576 4313.464844,2924.209717 
	C4349.952148,2883.543457 4386.502441,2842.933350 4422.877441,2802.167480 
	C4426.105469,2798.549805 4431.374023,2795.577393 4429.868164,2788.097656 
	C4423.806641,2788.097656 4417.921387,2788.101807 4412.036133,2788.097168 
	C4351.372559,2788.048340 4290.708496,2787.959229 4230.044922,2787.955078 
	C3990.054443,2787.938477 3750.064209,2787.945557 3510.073730,2787.959473 
	C3502.743408,2787.959961 3495.412842,2788.131592 3487.183594,2785.638672 
	C3487.245361,2783.820068 3487.307129,2782.001709 3489.076660,2777.809326 
	C3491.354980,2772.269531 3493.737549,2766.769775 3495.896240,2761.183838 
	C3591.666992,2513.399658 3687.446533,2265.618408 3783.163818,2017.813721 
	C3931.178223,1634.615845 4079.155762,1251.403809 4227.088867,868.174561 
	C4230.183105,860.158447 4232.557129,851.864258 4236.426758,842.323181 
	C4237.115723,841.224365 4237.239746,840.065063 4238.868652,837.086487 
	C4239.135742,835.326538 4239.402344,833.566589 4240.619629,830.884338 
	C4240.619629,830.884338 4240.423340,829.574768 4242.494141,827.815369 
	C4243.040039,825.211670 4243.585938,822.607971 4244.276367,820.654907 
	C4244.276367,820.654907 4244.930664,820.527588 4246.924316,819.146790 
	C4247.377930,816.848328 4247.831543,814.549866 4248.011230,812.076660 
	C4248.011230,812.076660 4248.296875,812.202393 4250.150879,810.415710 
	C4251.000000,807.185913 4251.849609,803.956116 4252.683594,800.581665 
	C4252.683594,800.581665 4252.791016,800.483765 4254.537598,799.408630 
	C4254.753906,798.118713 4254.969727,796.828796 4255.746582,793.761841 
	C4255.746582,793.761841 4256.229492,791.962341 4257.909180,790.420288 
	C4258.461426,788.307556 4259.013672,786.194824 4260.396484,781.418457 
	C4261.081543,777.177979 4266.014160,773.487610 4261.600098,767.990173 
	C4256.569336,773.474548 4251.591309,778.796997 4246.726562,784.220947 
	C4159.560059,881.408386 4072.437500,978.635254 3985.244873,1075.799561 
	C3812.637695,1268.147217 3639.980957,1460.450439 3467.367920,1652.792603 
	C3227.578369,1919.988770 2987.795654,2187.191162 2748.035889,2454.414062 
	C2495.817383,2735.522461 2243.613281,3016.644043 1991.456299,3297.807373 
	C1971.459351,3320.104736 1951.877441,3342.773926 1929.874146,3366.458252 
	C1898.080444,3401.944092 1866.286621,3437.429932 1832.734863,3474.927979 
	C1832.890381,3478.177979 1834.935425,3479.589111 1837.848877,3479.671631 
	C1845.173584,3479.879395 1852.503418,3479.983643 1859.831299,3479.983887 
	C2156.426270,3479.998047 2453.021240,3479.995605 2749.616211,3480.001221 
	C2756.947266,3480.001221 2764.294189,3479.804932 2771.602051,3480.235596 
	C2774.764160,3480.421875 2777.846191,3481.971191 2780.044189,3485.947754 
	C2778.222168,3490.923828 2776.399902,3495.899658 2773.398926,3500.989502 
	C2772.679443,3501.687256 2772.681885,3502.383789 2772.187012,3506.274170 
	C2771.317139,3508.378174 2770.447266,3510.481934 2768.488525,3512.793701 
	C2767.915771,3513.520264 2767.987305,3514.178467 2767.795654,3517.875000 
	C2767.450684,3518.896973 2767.105469,3519.918945 2765.607422,3521.053711 
	C2764.859619,3521.720947 2764.858398,3522.390625 2764.369385,3526.249023 
	C2763.605713,3528.392578 2762.842285,3530.536377 2760.920654,3532.797852 
	C2760.251709,3533.513428 2760.279053,3534.202393 2760.003662,3537.954590 
	C2759.665771,3538.982666 2759.327881,3540.010986 2757.854248,3541.270264 
	C2757.854248,3541.270264 2757.319092,3542.290527 2757.319092,3542.290527 
	C2757.319092,3542.290527 2757.944092,3543.260498 2756.754150,3546.177734 
	C2710.619141,3665.707764 2664.484131,3785.238037 2617.156006,3904.876221 
	C2616.426758,3905.588379 2616.436279,3906.291504 2616.155273,3910.249512 
	C2615.297363,3912.358887 2614.439209,3914.468262 2612.503174,3916.753906 
	C2611.929443,3917.466309 2611.997070,3918.113037 2611.757812,3921.643311 
	C2568.621582,4033.351562 2525.485107,4145.059570 2481.156006,4256.876465 
	C2480.427002,4257.588379 2480.436523,4258.291992 2480.154541,4262.252930 
	C2479.295410,4264.364258 2478.436279,4266.475098 2476.488281,4268.794434 
	C2475.915771,4269.520508 2475.987305,4270.178711 2475.795898,4273.874023 
	C2475.450928,4274.895508 2475.105713,4275.917480 2473.608398,4277.052734 
	C2472.860352,4277.719727 2472.859131,4278.389160 2472.369629,4282.248535 
	C2471.605957,4284.392578 2470.842285,4286.536621 2468.920654,4288.797363 
	C2468.251709,4289.513184 2468.279053,4290.202148 2468.002686,4293.956055 
	C2467.664307,4294.984863 2467.325928,4296.013184 2465.854980,4297.240723 
	C2465.104492,4297.897949 2465.099121,4298.562988 2464.592773,4302.127930 
	C2447.844727,4345.674805 2431.096680,4389.221191 2413.156006,4432.876465 
	C2412.427002,4433.588379 2412.436523,4434.291992 2412.154541,4438.252930 
	C2411.295410,4440.364258 2410.436035,4442.475098 2408.488281,4444.794434 
	C2407.915771,4445.520508 2407.987305,4446.178711 2407.795898,4449.874023 
	C2407.450928,4450.895508 2407.105713,4451.917480 2405.608398,4453.052734 
	C2404.860352,4453.719727 2404.859131,4454.389160 2404.369873,4458.248535 
	C2403.606201,4460.392578 2402.842529,4462.536621 2400.920654,4464.797363 
	C2400.251709,4465.513184 2400.279053,4466.202148 2400.002686,4469.956055 
	C2399.664307,4470.984863 2399.325928,4472.013184 2397.854980,4473.240723 
	C2397.104492,4473.897949 2397.099121,4474.562988 2396.592529,4478.127930 
	C2379.920898,4521.710449 2363.249268,4565.293457 2345.399414,4608.989258 
	C2344.679932,4609.686523 2344.682373,4610.382324 2344.187012,4614.273438 
	C2343.316895,4616.377930 2342.447021,4618.481934 2340.488281,4620.794434 
	C2339.915771,4621.520508 2339.987305,4622.178711 2339.795898,4625.874023 
	C2339.450928,4626.895508 2339.105713,4627.917480 2337.608398,4629.052734 
	C2336.860352,4629.719727 2336.859131,4630.389160 2336.369629,4634.248535 
	C2335.605957,4636.392578 2334.842041,4638.536621 2332.920654,4640.798340 
	C2332.252197,4641.513672 2332.279297,4642.202637 2332.003662,4645.954102 
	C2331.666016,4646.981934 2331.328125,4648.010254 2329.854736,4649.269531 
	C2329.854736,4649.269531 2329.319336,4650.290039 2329.319336,4650.290039 
	C2329.319336,4650.290039 2329.944336,4651.260254 2328.754395,4654.177246 
	C2282.618896,4773.708008 2236.483643,4893.238281 2189.155518,5012.877441 
	C2188.426758,5013.589355 2188.436523,5014.291992 2188.154541,5018.252930 
	C2187.295410,5020.364258 2186.436035,5022.475098 2184.488281,5024.794434 
	C2183.915771,5025.520508 2183.987305,5026.178711 2183.795898,5029.874023 
	C2183.450928,5030.895508 2183.105713,5031.917480 2181.608398,5033.052734 
	C2180.860352,5033.719727 2180.859131,5034.389160 2180.352295,5038.256348 
	C2179.519287,5040.382812 2178.686523,5042.509277 2176.715576,5044.808594 
	C2176.084717,5045.540527 2176.133789,5046.224609 2175.977783,5049.967773 
	C2175.647461,5050.992676 2175.317383,5052.017090 2173.854980,5053.240723 
	C2173.104492,5053.897949 2173.099121,5054.562988 2172.592773,5058.127930 
	C2155.844727,5101.674805 2139.096680,5145.222168 2121.155518,5188.877441 
	C2120.426758,5189.589355 2120.436523,5190.291992 2120.154785,5194.252930 
	C2119.295410,5196.364258 2118.436279,5198.475586 2116.488281,5200.794434 
	C2115.915771,5201.520508 2115.987305,5202.178711 2115.795898,5205.874023 
	C2115.450928,5206.895508 2115.105713,5207.917480 2113.608398,5209.052734 
	C2112.860352,5209.719727 2112.859131,5210.389160 2112.352539,5214.256348 
	C2111.519531,5216.382812 2110.686768,5218.509277 2108.715576,5220.808594 
	C2108.084717,5221.540527 2108.133789,5222.224609 2107.977783,5225.967773 
	C2107.647461,5226.992676 2107.317383,5228.017090 2105.854980,5229.240723 
	C2105.104492,5229.897949 2105.099121,5230.562988 2104.592773,5234.127930 
	C2087.844971,5277.674805 2071.096924,5321.221191 2053.156006,5364.876465 
	C2052.427002,5365.588379 2052.436523,5366.291992 2052.154541,5370.252930 
	C2051.295410,5372.364258 2050.436035,5374.475098 2048.488281,5376.794434 
	C2047.915894,5377.520508 2047.987305,5378.178711 2047.795654,5381.874512 
	C2047.450562,5382.896973 2047.105591,5383.918945 2045.608032,5385.052734 
	C2044.860352,5385.720215 2044.859131,5386.390137 2044.369507,5390.248535 
	C2043.605835,5392.392578 2042.842041,5394.536621 2040.920654,5396.797363 
	C2040.252197,5397.512695 2040.279541,5398.201660 2040.002686,5401.955566 
	C2039.664307,5402.983887 2039.325806,5404.012695 2037.854858,5405.239746 
	C2037.104858,5405.897461 2037.099487,5406.562500 2036.592041,5410.129883 
	C2028.588745,5430.883301 2020.585571,5451.636719 2011.637939,5472.632324 
	C2011.637939,5472.632324 2012.027344,5474.287598 2011.582153,5475.720703 
	C2011.582153,5475.720703 2011.100342,5477.142090 2009.233398,5478.499512 
	C2007.717651,5484.052246 2002.599609,5489.022461 2006.253540,5498.083496 
	C2010.554810,5492.265137 2013.520386,5488.253418 2018.282471,5482.351074 
	C2025.551514,5473.689941 2032.820679,5465.029297 2042.130737,5455.721191 
	C2042.724365,5454.484375 2043.317993,5453.248047 2044.039917,5452.018555 
z"/>
<path fill="#F7BF0D" opacity="1.000000" stroke="none" 
	d="
M2758.989990,3541.039307 
	C2759.327881,3540.010986 2759.665771,3538.982666 2761.057129,3536.309570 
	C2762.847656,3533.992432 2762.837158,3533.331055 2762.078857,3532.679932 
	C2762.842285,3530.536377 2763.605713,3528.392578 2765.565186,3524.633545 
	C2767.482910,3522.326904 2767.482666,3521.634521 2766.760254,3520.941162 
	C2767.105469,3519.918945 2767.450684,3518.896973 2768.763428,3516.174316 
	C2770.375000,3513.789307 2770.323730,3513.160156 2769.577393,3512.585938 
	C2770.447266,3510.481934 2771.317139,3508.378174 2773.386230,3504.626953 
	C2775.341309,3502.276855 2775.338623,3501.575439 2774.577637,3500.875732 
	C2776.399902,3495.899658 2778.222168,3490.923828 2781.165527,3483.801270 
	C2782.821533,3477.000244 2779.040527,3476.597412 2776.386719,3473.967041 
	C2788.626709,3438.897217 2803.697510,3406.337158 2814.300781,3370.599365 
	C2804.679688,3366.942871 2796.020264,3368.057129 2787.614258,3368.054932 
	C2582.966553,3367.996826 2378.319092,3368.010010 2173.671387,3368.009521 
	C2101.011475,3368.009277 2028.351440,3368.091064 1955.692139,3367.886719 
	C1947.826538,3367.864502 1939.965698,3366.182373 1932.102783,3365.270264 
	C1951.877441,3342.773926 1971.459351,3320.104736 1991.456299,3297.807373 
	C2243.613281,3016.644043 2495.817383,2735.522461 2748.035889,2454.414062 
	C2987.795654,2187.191162 3227.578369,1919.988770 3467.367920,1652.792603 
	C3639.980957,1460.450439 3812.637695,1268.147217 3985.244873,1075.799561 
	C4072.437500,978.635254 4159.560059,881.408386 4246.726562,784.220947 
	C4251.591309,778.796997 4256.569336,773.474548 4261.600098,767.990173 
	C4266.014160,773.487610 4261.081543,777.177979 4259.085449,783.468384 
	C4257.259277,787.666382 4256.744629,789.814331 4256.229492,791.962341 
	C4256.229492,791.962341 4255.746582,793.761841 4254.601074,795.190918 
	C4253.233887,797.907898 4253.012695,799.195862 4252.791016,800.483765 
	C4252.791016,800.483765 4252.683594,800.581665 4251.812500,801.587036 
	C4250.059570,805.795715 4249.178223,808.999084 4248.296875,812.202393 
	C4248.296875,812.202393 4248.011230,812.076660 4247.334961,813.008179 
	C4246.082520,816.135742 4245.506836,818.331665 4244.930664,820.527588 
	C4244.930664,820.527588 4244.276367,820.654907 4243.313477,821.314331 
	C4241.708496,824.507324 4241.065918,827.041016 4240.422852,829.574707 
	C4240.423340,829.574768 4240.619629,830.884338 4239.389648,832.394104 
	C4237.706055,835.551025 4237.252930,837.198181 4236.799805,838.845215 
	C4237.239746,840.065063 4237.115723,841.224365 4234.591309,843.502197 
	C4223.312988,852.047180 4220.373535,863.439087 4215.556641,873.479065 
	C4194.253906,917.882019 4173.499512,962.547668 4152.466309,1007.080444 
	C4138.818359,1035.976685 4125.031738,1064.807373 4111.309082,1093.668457 
	C4111.022949,1094.269897 4110.770996,1094.887451 4110.491699,1095.492432 
	C4095.429199,1128.123657 4080.531250,1160.832153 4065.254150,1193.362671 
	C4050.254395,1225.302734 4034.683594,1256.974731 4019.693848,1288.919434 
	C3992.553711,1346.758179 3965.687988,1404.725952 3938.651367,1462.613525 
	C3918.933105,1504.831787 3899.216797,1547.051392 3879.333740,1589.192139 
	C3854.906982,1640.962646 3830.248291,1692.623779 3805.800293,1744.384277 
	C3785.046631,1788.323853 3764.496826,1832.359497 3743.772949,1876.313232 
	C3720.493408,1925.688965 3697.080322,1975.001587 3673.799805,2024.376953 
	C3653.075684,2068.330811 3632.442627,2112.327148 3611.789551,2156.314209 
	C3591.420166,2199.697998 3571.147217,2243.127197 3550.701904,2286.475098 
	C3526.846924,2337.052490 3502.785156,2387.532471 3478.937256,2438.113037 
	C3459.066162,2480.259521 3439.560059,2522.578613 3419.559814,2564.663086 
	C3389.557129,2627.796143 3359.250732,2690.785400 3329.116455,2753.855957 
	C3326.539551,2759.249512 3324.020264,2764.699219 3321.962402,2770.302002 
	C3320.469971,2774.364990 3323.175049,2778.617188 3327.549316,2779.087158 
	C3333.484619,2779.724609 3339.487549,2779.948730 3345.462402,2779.964600 
	C3392.764648,2780.089111 3440.066650,2780.122070 3487.368896,2780.183105 
	C3487.307129,2782.001709 3487.245361,2783.820068 3487.970703,2787.959961 
	C3495.966064,2790.821777 3503.174316,2791.831543 3510.382812,2791.834229 
	C3748.321533,2791.916504 3986.260498,2791.901611 4224.199219,2791.906006 
	C4230.863770,2791.906006 4237.534180,2791.814697 4244.189941,2792.072510 
	C4246.585938,2792.165039 4248.946289,2793.161621 4252.674316,2794.077881 
	C4248.207520,2802.975586 4243.164551,2809.760010 4237.650879,2816.237061 
	C4220.843750,2835.980957 4203.912598,2855.620117 4187.222656,2875.462158 
	C4167.969727,2898.351074 4148.899414,2921.394043 4129.795898,2944.408203 
	C4121.303711,2954.639160 4112.958008,2964.991455 4104.486816,2975.239746 
	C4087.970947,2995.220703 4071.481934,3015.224365 4054.853271,3035.111084 
	C4038.647705,3054.491455 4022.165039,3073.640869 4006.019287,3093.070312 
	C3989.452148,3113.006592 3973.287109,3133.277100 3956.685059,3153.183594 
	C3940.078613,3173.095459 3922.997070,3192.611328 3906.404297,3212.534424 
	C3889.816162,3232.451660 3873.733398,3252.790527 3857.137207,3272.701172 
	C3840.536133,3292.616943 3823.409180,3312.094482 3806.816406,3332.017334 
	C3790.227539,3351.934814 3774.185547,3372.307861 3757.589111,3392.218994 
	C3740.989014,3412.134766 3723.822754,3431.579346 3707.229736,3451.500977 
	C3690.640137,3471.418457 3674.635254,3491.822754 3658.038574,3511.733887 
	C3641.438477,3531.649658 3624.309570,3551.123779 3607.619873,3570.965576 
	C3588.366699,3593.854248 3569.326660,3616.922607 3550.221191,3639.935059 
	C3541.727051,3650.165771 3533.304443,3660.456055 3524.839111,3670.710449 
	C3508.336182,3690.701172 3491.918213,3710.762939 3475.292969,3730.650879 
	C3459.089844,3750.033936 3442.532959,3769.121826 3426.385742,3788.550537 
	C3409.817871,3808.485352 3393.716309,3828.808105 3377.119629,3848.718506 
	C3360.518066,3868.634033 3343.393799,3888.113770 3326.801514,3908.036621 
	C3310.212646,3927.954346 3294.168457,3948.325439 3277.572266,3968.236572 
	C3260.971924,3988.152588 3243.807129,4007.598145 3227.214355,4027.520020 
	C3210.624756,4047.437500 3194.618164,4067.840576 3178.021484,4087.751709 
	C3161.420898,4107.666992 3144.294678,4127.143555 3127.604492,4146.984863 
	C3108.351562,4169.874023 3089.310547,4192.940918 3070.204102,4215.953613 
	C3061.709961,4226.184082 3053.290039,4236.476074 3044.824463,4246.730957 
	C3028.321289,4266.721680 3011.900879,4286.780762 2995.275146,4306.668945 
	C2979.072021,4326.051758 2962.518311,4345.142578 2946.371338,4364.571777 
	C2929.803711,4384.506836 2913.698975,4404.826660 2897.102295,4424.737305 
	C2880.500977,4444.653320 2863.377930,4464.134277 2846.784912,4484.057129 
	C2830.196045,4503.974609 2814.150391,4524.344727 2797.553955,4544.255859 
	C2780.953369,4564.170898 2763.790771,4583.618652 2747.197754,4603.540527 
	C2730.608643,4623.458496 2714.600830,4643.860840 2698.004150,4663.771973 
	C2681.403809,4683.687500 2664.277832,4703.164062 2647.587402,4723.005859 
	C2628.334229,4745.894531 2609.291992,4768.960449 2590.186279,4791.973145 
	C2581.692139,4802.204102 2573.274902,4812.498535 2564.809082,4822.752930 
	C2548.304932,4842.742676 2531.882080,4862.799805 2515.256592,4882.688477 
	C2499.053467,4902.070801 2482.503174,4921.164551 2466.355957,4940.593750 
	C2449.788574,4960.528809 2433.680420,4980.846191 2417.083008,5000.756836 
	C2400.481445,5020.671875 2383.360352,5040.154785 2366.768066,5060.077637 
	C2350.179688,5079.995605 2334.132324,5100.364746 2317.536133,5120.275879 
	C2300.935791,5140.191895 2283.774414,5159.640137 2267.181152,5179.562012 
	C2250.591797,5199.479492 2234.581299,5219.879883 2217.984863,5239.791016 
	C2201.384521,5259.707031 2184.247803,5279.174805 2167.574951,5299.031250 
	C2148.769043,5321.427734 2130.331299,5344.134277 2111.473633,5366.486328 
	C2106.975586,5371.818359 2103.496582,5377.113281 2104.320312,5384.364258 
	C2104.320312,5384.364258 2104.031250,5384.061523 2102.816895,5384.338867 
	C2091.143066,5388.765625 2084.191162,5395.625000 2083.855713,5407.594238 
	C2083.855713,5407.594238 2083.866455,5407.935547 2082.894043,5408.356445 
	C2080.928955,5409.545898 2080.265625,5410.536133 2079.932129,5411.747070 
	C2078.138672,5414.237305 2076.345215,5416.727539 2072.234863,5419.875977 
	C2065.349365,5422.155762 2063.871826,5425.820312 2063.511719,5430.223633 
	C2063.511719,5430.223633 2063.236084,5431.419922 2062.127930,5431.948242 
	C2060.369873,5433.036133 2059.937744,5433.730957 2059.723145,5434.561523 
	C2059.723145,5434.561523 2059.685059,5435.531250 2058.552246,5436.002441 
	C2056.592773,5437.104004 2056.037598,5437.919434 2055.754150,5438.919922 
	C2055.754150,5438.919922 2055.779541,5439.750977 2054.639648,5440.166992 
	C2052.612061,5441.313965 2052.047852,5442.241699 2051.807617,5443.366699 
	C2051.807617,5443.366699 2051.876221,5443.817871 2050.870117,5444.265625 
	C2048.896973,5445.465332 2048.246094,5446.431152 2047.911987,5447.610352 
	C2047.911987,5447.610352 2047.915894,5447.937012 2046.947266,5448.387207 
	C2044.982300,5449.641602 2044.320923,5450.662109 2043.994385,5451.899902 
	C2043.994385,5451.899902 2044.039917,5452.018555 2043.146729,5452.556152 
	C2041.226318,5453.982910 2040.505005,5455.074219 2040.089844,5456.368164 
	C2032.820679,5465.029297 2025.551514,5473.689941 2016.180298,5482.973145 
	C2013.085449,5481.444336 2012.092896,5479.292969 2011.100342,5477.142090 
	C2011.100342,5477.142090 2011.582153,5475.720703 2012.270752,5474.885254 
	C2012.959473,5474.049805 2012.582153,5472.390137 2012.582275,5472.390137 
	C2020.585571,5451.636719 2028.588745,5430.883301 2037.795898,5408.642578 
	C2039.697510,5406.448242 2039.693359,5405.743652 2038.987183,5405.041992 
	C2039.325806,5404.012695 2039.664307,5402.983887 2041.057007,5400.309570 
	C2042.847778,5397.991699 2042.836792,5397.330566 2042.078369,5396.680664 
	C2042.842041,5394.536621 2043.605835,5392.392578 2045.565430,5388.632812 
	C2047.483643,5386.325684 2047.483398,5385.633789 2046.760620,5384.940430 
	C2047.105591,5383.918945 2047.450562,5382.896973 2048.763184,5380.173828 
	C2050.373535,5377.789551 2050.322021,5377.160645 2049.576904,5376.586426 
	C2050.436035,5374.475098 2051.295410,5372.364258 2053.245605,5368.544922 
	C2055.072510,5366.152832 2055.076660,5365.463379 2054.348877,5364.768066 
	C2071.096924,5321.221191 2087.844971,5277.674805 2105.796387,5232.641602 
	C2107.697510,5230.448242 2107.693359,5229.743652 2106.987305,5229.041992 
	C2107.317383,5228.017090 2107.647461,5226.992676 2108.956055,5224.274414 
	C2110.642090,5221.903809 2110.615479,5221.255371 2109.854004,5220.635742 
	C2110.686768,5218.509277 2111.519531,5216.382812 2113.557129,5212.636719 
	C2115.483643,5210.325195 2115.483398,5209.633301 2114.760742,5208.939941 
	C2115.105713,5207.917480 2115.450928,5206.895508 2116.763428,5204.173828 
	C2118.373535,5201.789551 2118.322021,5201.160645 2117.577148,5200.586426 
	C2118.436279,5198.475586 2119.295410,5196.364258 2121.245605,5192.544922 
	C2123.072266,5190.153320 2123.076416,5189.463867 2122.348389,5188.769043 
	C2139.096680,5145.222168 2155.844727,5101.674805 2173.796387,5056.641602 
	C2175.697510,5054.448242 2175.693359,5053.743652 2174.987305,5053.041992 
	C2175.317383,5052.017090 2175.647461,5050.992676 2176.956055,5048.274414 
	C2178.642090,5045.903809 2178.615479,5045.255371 2177.853760,5044.635742 
	C2178.686523,5042.509277 2179.519287,5040.382812 2181.557129,5036.636719 
	C2183.483643,5034.325195 2183.483398,5033.633301 2182.760742,5032.939941 
	C2183.105713,5031.917480 2183.450928,5030.895508 2184.763428,5028.173828 
	C2186.373535,5025.789551 2186.322021,5025.160645 2185.576904,5024.586426 
	C2186.436035,5022.475098 2187.295410,5020.364258 2189.245361,5016.544922 
	C2191.072266,5014.153320 2191.076416,5013.463867 2190.348389,5012.769043 
	C2236.483643,4893.238281 2282.618896,4773.708008 2329.923340,4652.659668 
	C2331.741455,4650.409180 2331.707520,4649.708008 2330.990234,4649.038086 
	C2331.328125,4648.010254 2331.666016,4646.981934 2333.057129,4644.309082 
	C2334.847900,4641.992676 2334.837158,4641.331543 2334.078369,4640.680664 
	C2334.842041,4638.536621 2335.605957,4636.392578 2337.565674,4632.632812 
	C2339.483643,4630.325195 2339.483398,4629.633301 2338.760742,4628.939941 
	C2339.105713,4627.917480 2339.450928,4626.895508 2340.763428,4624.173828 
	C2342.373535,4621.789551 2342.322021,4621.160645 2341.576904,4620.586426 
	C2342.447021,4618.481934 2343.316895,4616.377930 2345.386475,4612.625977 
	C2347.341797,4610.276367 2347.339111,4609.575195 2346.577881,4608.875977 
	C2363.249268,4565.293457 2379.920898,4521.710449 2397.796143,4476.641602 
	C2399.697510,4474.448242 2399.693359,4473.743652 2398.987305,4473.041992 
	C2399.325928,4472.013184 2399.664307,4470.984863 2401.056641,4468.310547 
	C2402.848145,4465.992676 2402.837402,4465.331055 2402.078613,4464.680664 
	C2402.842529,4462.536621 2403.606201,4460.392578 2405.565918,4456.632812 
	C2407.483643,4454.325195 2407.483398,4453.633301 2406.760742,4452.939941 
	C2407.105713,4451.917480 2407.450928,4450.895508 2408.763428,4448.173828 
	C2410.373535,4445.789551 2410.322021,4445.160645 2409.576904,4444.586426 
	C2410.436035,4442.475098 2411.295410,4440.364258 2413.245605,4436.544922 
	C2415.072510,4434.152832 2415.076660,4433.463379 2414.348877,4432.768066 
	C2431.096680,4389.221191 2447.844727,4345.674805 2465.796387,4300.641602 
	C2467.697510,4298.448242 2467.693359,4297.743652 2466.987305,4297.041992 
	C2467.325928,4296.013184 2467.664307,4294.984863 2469.056641,4292.310547 
	C2470.848145,4289.992676 2470.837402,4289.331055 2470.078613,4288.680664 
	C2470.842285,4286.536621 2471.605957,4284.392578 2473.565674,4280.632812 
	C2475.483643,4278.325195 2475.483398,4277.633301 2474.760742,4276.939941 
	C2475.105713,4275.917480 2475.450928,4274.895508 2476.763428,4272.173828 
	C2478.373535,4269.789551 2478.322021,4269.160645 2477.576904,4268.586426 
	C2478.436279,4266.475098 2479.295410,4264.364258 2481.245605,4260.544922 
	C2483.072510,4258.152832 2483.076660,4257.463379 2482.348877,4256.768066 
	C2525.485107,4145.059570 2568.621582,4033.351562 2612.744141,3920.039307 
	C2614.380127,3917.761230 2614.330322,3917.142090 2613.581055,3916.577637 
	C2614.439209,3914.468262 2615.297363,3912.358887 2617.246094,3908.542969 
	C2619.072510,3906.152588 2619.076660,3905.463135 2618.349121,3904.768066 
	C2664.484131,3785.238037 2710.619141,3665.707764 2757.923340,3544.660156 
	C2759.741699,3542.409424 2759.707520,3541.708252 2758.989990,3541.039307 
M2092.664551,3267.732666 
	C2092.664551,3267.732666 2092.657471,3266.845703 2092.657471,3266.845703 
	C2092.657471,3266.845703 2091.949219,3267.960938 2091.321533,3268.249512 
	C2091.321533,3268.249512 2091.293701,3269.109131 2091.293701,3269.109131 
	C2091.293701,3269.109131 2092.033203,3268.048828 2092.664551,3267.732666 
M4082.906250,1024.873779 
	C4082.890625,1025.790161 4082.875000,1026.706543 4082.859131,1027.622803 
	C4083.153564,1027.054932 4083.535645,1026.513794 4083.718506,1025.911987 
	C4083.904785,1025.298706 4083.895020,1024.625610 4084.579834,1023.733948 
	C4084.579834,1023.733948 4084.653320,1022.985718 4084.653320,1022.985718 
	C4084.653320,1022.985718 4084.020752,1024.027466 4082.906250,1024.873779 
M3901.563965,1247.497314 
	C3907.961182,1239.838745 3914.374512,1232.193237 3920.752686,1224.519043 
	C3945.416992,1194.843506 3969.938721,1165.048706 3994.764893,1135.509399 
	C4018.737793,1106.986084 4043.049561,1078.748169 4067.092529,1050.283447 
	C4068.547607,1048.560425 4068.943848,1045.943115 4069.808838,1043.802002 
	C4063.761230,1040.778320 4061.301758,1044.884888 4058.851318,1047.511475 
	C4047.052734,1060.158447 4035.693848,1073.215942 4023.876465,1085.844971 
	C4004.319092,1106.746216 3983.659912,1126.524414 3964.859375,1148.248779 
	C3940.482422,1176.415894 3913.917480,1202.693481 3888.189697,1229.684814 
	C3877.613281,1240.780884 3866.470459,1251.347412 3856.097900,1262.626465 
	C3832.679932,1288.092407 3809.795654,1314.050903 3786.293945,1339.438232 
	C3761.416260,1366.312012 3736.073975,1392.755859 3710.937744,1419.390137 
	C3710.022705,1420.359497 3709.130127,1421.350342 3708.236572,1422.339478 
	C3685.040771,1448.010498 3661.955078,1473.781860 3638.618164,1499.323853 
	C3619.759521,1519.964844 3600.598877,1540.330078 3581.573242,1560.818726 
	C3581.119629,1561.307129 3580.678711,1561.807495 3580.232422,1562.302368 
	C3557.053711,1587.988403 3533.936035,1613.729370 3510.676270,1639.341431 
	C3494.119141,1657.573242 3477.195801,1675.474609 3460.753174,1693.808105 
	C3442.988281,1713.615967 3425.708252,1733.858276 3408.006592,1753.723755 
	C3384.989258,1779.555542 3361.773438,1805.210938 3338.626221,1830.927124 
	C3313.695801,1858.624390 3288.826416,1886.377197 3263.777344,1913.967041 
	C3246.327148,1933.187134 3228.612549,1952.167480 3211.036133,1971.273560 
	C3209.233887,1973.232544 3207.597656,1975.343140 3205.840332,1977.344849 
	C3189.601807,1995.839600 3173.490967,2014.448730 3157.069092,2032.779297 
	C3141.080322,2050.626465 3124.635742,2068.065430 3108.635498,2085.902588 
	C3088.644775,2108.187744 3068.915039,2130.707520 3049.049316,2153.104980 
	C3036.242676,2167.543457 3023.304688,2181.866211 3010.586914,2196.382324 
	C2995.245850,2213.892822 2980.221436,2231.681885 2964.790039,2249.111084 
	C2950.230957,2265.554443 2935.250244,2281.623779 2920.591309,2297.979736 
	C2910.822998,2308.879395 2901.252686,2319.957520 2891.666260,2331.018555 
	C2876.418945,2348.611816 2861.360352,2366.370361 2845.981934,2383.847900 
	C2832.353516,2399.337158 2818.326416,2414.474365 2804.613037,2429.889893 
	C2794.441406,2441.323730 2784.429688,2452.902100 2774.455322,2464.509277 
	C2761.016602,2480.147705 2747.846680,2496.019531 2734.257324,2511.524902 
	C2720.659668,2527.040039 2706.617188,2542.164551 2692.902832,2557.578613 
	C2682.730957,2569.011230 2672.713135,2580.582520 2662.732422,2592.183350 
	C2648.850586,2608.318848 2635.177734,2624.635010 2621.209473,2640.695068 
	C2608.980713,2654.755127 2596.234863,2668.368652 2584.134033,2682.535400 
	C2564.691650,2705.297363 2545.747803,2728.484619 2526.310791,2751.250977 
	C2501.256348,2780.597168 2475.970703,2809.746826 2450.697021,2838.905029 
	C2422.368896,2871.586914 2393.919189,2904.163818 2365.571045,2936.828613 
	C2356.412354,2947.381836 2347.347656,2958.018066 2338.345215,2968.704834 
	C2319.059326,2991.599854 2299.884033,3014.588135 2280.583252,3037.470459 
	C2263.851562,3057.307129 2246.875244,3076.938477 2230.255127,3096.867676 
	C2214.063477,3116.283203 2198.387695,3136.130127 2182.124756,3155.484863 
	C2157.727783,3184.520020 2132.983154,3213.262695 2108.525146,3242.246582 
	C2107.150635,3243.875488 2107.030518,3246.562012 2105.089111,3252.613525 
	C2111.510254,3248.358887 2115.119873,3246.815674 2117.583008,3244.194336 
	C2131.252197,3229.647949 2144.479980,3214.686279 2158.166992,3200.156982 
	C2178.709229,3178.351074 2200.164062,3157.481445 2219.977051,3134.893799 
	C2246.741943,3104.380615 2275.709229,3075.802490 2303.645020,3046.312012 
	C2326.997314,3021.660156 2350.225830,2996.891113 2373.508057,2972.172852 
	C2373.965088,2971.687744 2374.411621,2971.192871 2374.861084,2970.700439 
	C2401.331299,2941.705078 2427.716309,2912.631104 2454.299805,2883.739746 
	C2474.133301,2862.184326 2494.223633,2840.865234 2514.198486,2819.439697 
	C2514.653076,2818.951904 2515.094727,2818.452393 2515.539551,2817.956055 
	C2536.857178,2794.179932 2557.975342,2770.220947 2579.547852,2746.678467 
	C2601.136963,2723.117676 2623.182861,2699.975830 2645.019287,2676.641357 
	C2646.384277,2675.182617 2647.667480,2673.647217 2648.986084,2672.144775 
	C2665.659668,2653.148193 2682.102051,2633.941650 2699.066895,2615.208984 
	C2718.280762,2593.992676 2737.963623,2573.201172 2757.438965,2552.221680 
	C2758.345947,2551.244873 2759.228516,2550.245361 2760.105957,2549.242188 
	C2776.745850,2530.213867 2793.159912,2510.982422 2810.081543,2492.208496 
	C2828.353516,2471.936523 2847.103271,2452.094971 2865.632568,2432.054688 
	C2866.989014,2430.587646 2868.232666,2429.017334 2869.552734,2427.516357 
	C2886.685791,2408.036377 2903.676025,2388.428223 2921.002686,2369.121826 
	C2937.451904,2350.793213 2954.335693,2332.855225 2970.873535,2314.605225 
	C2982.489990,2301.786133 2993.864990,2288.747803 3005.314941,2275.778564 
	C3022.925293,2255.832031 3040.404053,2235.767822 3058.133301,2215.927734 
	C3073.211914,2199.053955 3088.705566,2182.550781 3103.761719,2165.657471 
	C3122.351074,2144.799072 3140.640381,2123.673340 3159.132080,2102.727295 
	C3171.464111,2088.758789 3183.980713,2074.953125 3196.311279,2060.983154 
	C3214.360352,2040.534302 3232.316162,2020.002808 3250.314209,1999.508789 
	C3252.950439,1996.506714 3255.623779,1993.537354 3258.240234,1990.517944 
	C3272.613525,1973.927979 3286.848145,1957.215576 3301.375977,1940.762085 
	C3315.472168,1924.797607 3329.994141,1909.209351 3344.095703,1893.249512 
	C3361.273926,1873.807983 3378.188477,1854.133667 3395.254395,1834.592651 
	C3406.636230,1821.560303 3418.150391,1808.643433 3429.482666,1795.568604 
	C3443.858887,1778.982056 3457.995361,1762.186768 3472.450684,1745.670044 
	C3485.599365,1730.645752 3499.161377,1715.982788 3512.314941,1700.962524 
	C3528.091553,1682.947144 3543.606201,1664.702271 3559.276611,1646.593506 
	C3571.032959,1633.008057 3582.932373,1619.545288 3594.630127,1605.909546 
	C3606.757324,1591.773315 3618.583252,1577.377197 3630.790283,1563.311157 
	C3643.003418,1549.238403 3655.697510,1535.582153 3667.874268,1521.478638 
	C3690.915527,1494.791626 3713.738770,1467.916138 3736.650146,1441.116821 
	C3746.595703,1429.484131 3756.571777,1417.877319 3766.469482,1406.203979 
	C3778.513916,1391.998169 3790.423828,1377.677734 3802.511475,1363.508789 
	C3821.081299,1341.742065 3839.776855,1320.082520 3858.374268,1298.338989 
	C3872.211914,1282.160278 3885.979492,1265.921265 3901.563965,1247.497314 
M3362.480957,2828.036865 
	C3344.590576,2829.388428 3326.698730,2830.725830 3308.810547,2832.104736 
	C3305.504639,2832.359375 3302.174805,2832.599609 3298.936523,2833.247803 
	C3298.090332,2833.417236 3297.546387,2835.097412 3296.833740,2836.126953 
	C3298.835205,2841.160889 3303.436768,2839.565918 3307.020752,2839.759033 
	C3316.995605,2840.296875 3327.261963,2839.022949 3336.924316,2840.935303 
	C3352.820557,2844.081543 3368.713623,2843.844727 3384.679688,2844.066650 
	C3389.342773,2844.131592 3394.159424,2843.603760 3398.640137,2844.573486 
	C3421.715820,2849.567139 3445.094482,2847.459229 3468.354980,2848.102295 
	C3476.337891,2848.322998 3484.324951,2848.641846 3492.290039,2849.202881 
	C3502.886230,2849.949463 3513.457520,2851.689209 3524.048340,2851.764404 
	C3576.030273,2852.132812 3628.015625,2851.951172 3679.997559,2852.309082 
	C3690.590332,2852.382080 3701.160645,2854.407715 3711.763916,2854.693359 
	C3725.701172,2855.068359 3739.668701,2854.868652 3753.607422,2854.422607 
	C3762.887451,2854.125488 3772.135742,2852.351562 3781.404785,2852.295410 
	C3833.386963,2851.980225 3885.371094,2852.007080 3937.354736,2851.856445 
	C3944.012207,2851.836914 3950.888428,2852.460693 3957.281494,2851.053223 
	C3971.791748,2847.858398 3986.401855,2848.211914 4001.044189,2848.016357 
	C4020.993164,2847.750244 4041.026123,2849.183838 4060.762939,2844.609131 
	C4064.584961,2843.722900 4068.731934,2844.290771 4072.722656,2844.072266 
	C4099.939453,2842.583008 4127.157227,2841.100586 4154.367188,2839.491943 
	C4156.974121,2839.337891 4159.627441,2838.432617 4159.109863,2833.695312 
	C4154.904785,2833.167480 4150.459961,2832.402832 4145.983398,2832.096436 
	C4139.342773,2831.641113 4132.441895,2832.526123 4126.075195,2831.033936 
	C4112.236816,2827.790039 4098.296387,2828.143555 4084.321045,2827.960693 
	C4078.992188,2827.890869 4073.470459,2828.517578 4068.372314,2827.354980 
	C4048.609131,2822.848145 4028.589355,2824.376221 4008.645752,2823.975586 
	C3997.322998,2823.748291 3985.755127,2824.891357 3974.738037,2822.936035 
	C3959.472168,2820.226562 3944.262451,2820.116943 3928.961670,2820.059814 
	C3888.974609,2819.910645 3848.986572,2819.921143 3808.999512,2819.778809 
	C3802.347168,2819.755127 3795.687256,2819.426758 3789.046875,2818.990234 
	C3776.458008,2818.163086 3763.893799,2816.691162 3751.295654,2816.338623 
	C3734.647217,2815.873291 3717.975098,2816.136475 3701.314941,2816.275391 
	C3695.334229,2816.325195 3689.352539,2816.845947 3683.381592,2817.289307 
	C3672.787109,2818.075195 3662.205322,2819.614014 3651.608887,2819.701172 
	C3606.958496,2820.068604 3562.304688,2819.999512 3517.652100,2820.137695 
	C3511.657959,2820.156250 3505.453125,2819.498779 3499.709717,2820.782715 
	C3480.584229,2825.058350 3461.242920,2823.564941 3441.966797,2824.002930 
	C3431.313232,2824.245361 3420.417236,2823.227051 3410.066895,2825.139404 
	C3395.473389,2827.835938 3380.928223,2827.846191 3362.480957,2828.036865 
z"/>
<path fill="#F1A507" opacity="1.000000" stroke="none" 
	d="
M2105.557861,5383.851562 
	C2103.496582,5377.113281 2106.975586,5371.818359 2111.473633,5366.486328 
	C2130.331299,5344.134277 2148.769043,5321.427734 2167.574951,5299.031250 
	C2184.247803,5279.174805 2201.384521,5259.707031 2217.984863,5239.791016 
	C2234.581299,5219.879883 2250.591797,5199.479492 2267.181152,5179.562012 
	C2283.774414,5159.640137 2300.935791,5140.191895 2317.536133,5120.275879 
	C2334.132324,5100.364746 2350.179688,5079.995605 2366.768066,5060.077637 
	C2383.360352,5040.154785 2400.481445,5020.671875 2417.083008,5000.756836 
	C2433.680420,4980.846191 2449.788574,4960.528809 2466.355957,4940.593750 
	C2482.503174,4921.164551 2499.053467,4902.070801 2515.256592,4882.688477 
	C2531.882080,4862.799805 2548.304932,4842.742676 2564.809082,4822.752930 
	C2573.274902,4812.498535 2581.692139,4802.204102 2590.186279,4791.973145 
	C2609.291992,4768.960449 2628.334229,4745.894531 2647.587402,4723.005859 
	C2664.277832,4703.164062 2681.403809,4683.687500 2698.004150,4663.771973 
	C2714.600830,4643.860840 2730.608643,4623.458496 2747.197754,4603.540527 
	C2763.790771,4583.618652 2780.953369,4564.170898 2797.553955,4544.255859 
	C2814.150391,4524.344727 2830.196045,4503.974609 2846.784912,4484.057129 
	C2863.377930,4464.134277 2880.500977,4444.653320 2897.102295,4424.737305 
	C2913.698975,4404.826660 2929.803711,4384.506836 2946.371338,4364.571777 
	C2962.518311,4345.142578 2979.072021,4326.051758 2995.275146,4306.668945 
	C3011.900879,4286.780762 3028.321289,4266.721680 3044.824463,4246.730957 
	C3053.290039,4236.476074 3061.709961,4226.184082 3070.204102,4215.953613 
	C3089.310547,4192.940918 3108.351562,4169.874023 3127.604492,4146.984863 
	C3144.294678,4127.143555 3161.420898,4107.666992 3178.021484,4087.751709 
	C3194.618164,4067.840576 3210.624756,4047.437500 3227.214355,4027.520020 
	C3243.807129,4007.598145 3260.971924,3988.152588 3277.572266,3968.236572 
	C3294.168457,3948.325439 3310.212646,3927.954346 3326.801514,3908.036621 
	C3343.393799,3888.113770 3360.518066,3868.634033 3377.119629,3848.718506 
	C3393.716309,3828.808105 3409.817871,3808.485352 3426.385742,3788.550537 
	C3442.532959,3769.121826 3459.089844,3750.033936 3475.292969,3730.650879 
	C3491.918213,3710.762939 3508.336182,3690.701172 3524.839111,3670.710449 
	C3533.304443,3660.456055 3541.727051,3650.165771 3550.221191,3639.935059 
	C3569.326660,3616.922607 3588.366699,3593.854248 3607.619873,3570.965576 
	C3624.309570,3551.123779 3641.438477,3531.649658 3658.038574,3511.733887 
	C3674.635254,3491.822754 3690.640137,3471.418457 3707.229736,3451.500977 
	C3723.822754,3431.579346 3740.989014,3412.134766 3757.589111,3392.218994 
	C3774.185547,3372.307861 3790.227539,3351.934814 3806.816406,3332.017334 
	C3823.409180,3312.094482 3840.536133,3292.616943 3857.137207,3272.701172 
	C3873.733398,3252.790527 3889.816162,3232.451660 3906.404297,3212.534424 
	C3922.997070,3192.611328 3940.078613,3173.095459 3956.685059,3153.183594 
	C3973.287109,3133.277100 3989.452148,3113.006592 4006.019287,3093.070312 
	C4022.165039,3073.640869 4038.647705,3054.491455 4054.853271,3035.111084 
	C4071.481934,3015.224365 4087.970947,2995.220703 4104.486816,2975.239746 
	C4112.958008,2964.991455 4121.303711,2954.639160 4129.795898,2944.408203 
	C4148.899414,2921.394043 4167.969727,2898.351074 4187.222656,2875.462158 
	C4203.912598,2855.620117 4220.843750,2835.980957 4237.650879,2816.237061 
	C4243.164551,2809.760010 4248.207520,2802.975586 4252.674316,2794.077881 
	C4248.946289,2793.161621 4246.585938,2792.165039 4244.189941,2792.072510 
	C4237.534180,2791.814697 4230.863770,2791.906006 4224.199219,2791.906006 
	C3986.260498,2791.901611 3748.321533,2791.916504 3510.382812,2791.834229 
	C3503.174316,2791.831543 3495.966064,2790.821777 3488.420166,2789.252441 
	C3495.412842,2788.131592 3502.743408,2787.959961 3510.073730,2787.959473 
	C3750.064209,2787.945557 3990.054443,2787.938477 4230.044922,2787.955078 
	C4290.708496,2787.959229 4351.372559,2788.048340 4412.036133,2788.097168 
	C4417.921387,2788.101807 4423.806641,2788.097656 4429.868164,2788.097656 
	C4431.374023,2795.577393 4426.105469,2798.549805 4422.877441,2802.167480 
	C4386.502441,2842.933350 4349.952148,2883.543457 4313.464844,2924.209717 
	C4150.611328,3105.715576 3987.755859,3287.218750 3824.915771,3468.736328 
	C3615.358643,3702.329590 3405.832764,3935.950195 3196.262207,4169.531738 
	C2987.580078,4402.123047 2778.846680,4634.668945 2570.158447,4867.255371 
	C2418.428955,5036.360840 2266.737793,5205.500488 2115.018555,5374.614746 
	C2112.350342,5377.588379 2109.539551,5380.434082 2105.557861,5383.851562 
z"/>
<path fill="#F1A607" opacity="1.000000" stroke="none" 
	d="
M3488.222656,2778.996094 
	C3440.066650,2780.122070 3392.764648,2780.089111 3345.462402,2779.964600 
	C3339.487549,2779.948730 3333.484619,2779.724609 3327.549316,2779.087158 
	C3323.175049,2778.617188 3320.469971,2774.364990 3321.962402,2770.302002 
	C3324.020264,2764.699219 3326.539551,2759.249512 3329.116455,2753.855957 
	C3359.250732,2690.785400 3389.557129,2627.796143 3419.559814,2564.663086 
	C3439.560059,2522.578613 3459.066162,2480.259521 3478.937256,2438.113037 
	C3502.785156,2387.532471 3526.846924,2337.052490 3550.701904,2286.475098 
	C3571.147217,2243.127197 3591.420166,2199.697998 3611.789551,2156.314209 
	C3632.442627,2112.327148 3653.075684,2068.330811 3673.799805,2024.376953 
	C3697.080322,1975.001587 3720.493408,1925.688965 3743.772949,1876.313232 
	C3764.496826,1832.359497 3785.046631,1788.323853 3805.800293,1744.384277 
	C3830.248291,1692.623779 3854.906982,1640.962646 3879.333740,1589.192139 
	C3899.216797,1547.051392 3918.933105,1504.831787 3938.651367,1462.613525 
	C3965.687988,1404.725952 3992.553711,1346.758179 4019.693848,1288.919434 
	C4034.683594,1256.974731 4050.254395,1225.302734 4065.254150,1193.362671 
	C4080.531250,1160.832153 4095.429199,1128.123657 4110.491699,1095.492432 
	C4110.770996,1094.887451 4111.022949,1094.269897 4111.309082,1093.668457 
	C4125.031738,1064.807373 4138.818359,1035.976685 4152.466309,1007.080444 
	C4173.499512,962.547668 4194.253906,917.882019 4215.556641,873.479065 
	C4220.373535,863.439087 4223.312988,852.047180 4234.011719,844.190552 
	C4232.557129,851.864258 4230.183105,860.158447 4227.088867,868.174561 
	C4079.155762,1251.403809 3931.178223,1634.615845 3783.163818,2017.813721 
	C3687.446533,2265.618408 3591.666992,2513.399658 3495.896240,2761.183838 
	C3493.737549,2766.769775 3491.354980,2772.269531 3488.222656,2778.996094 
z"/>
<path fill="#F3A707" opacity="1.000000" stroke="none" 
	d="
M1930.988403,3365.864258 
	C1939.965698,3366.182373 1947.826538,3367.864502 1955.692139,3367.886719 
	C2028.351440,3368.091064 2101.011475,3368.009277 2173.671387,3368.009521 
	C2378.319092,3368.010010 2582.966553,3367.996826 2787.614258,3368.054932 
	C2796.020264,3368.057129 2804.679688,3366.942871 2814.300781,3370.599365 
	C2803.697510,3406.337158 2788.626709,3438.897217 2774.516113,3474.182129 
	C2766.365234,3475.864990 2760.375977,3475.986572 2754.386719,3475.986816 
	C2456.873779,3475.996094 2159.360596,3475.995361 1861.847656,3475.986328 
	C1855.858765,3475.986084 1849.844360,3476.173584 1843.891235,3475.678467 
	C1840.703857,3475.413574 1837.622192,3473.877930 1834.492798,3472.915527 
	C1866.286621,3437.429932 1898.080444,3401.944092 1930.988403,3365.864258 
z"/>
<path fill="#973F02" opacity="1.000000" stroke="none" 
	d="
M1833.613770,3473.921875 
	C1837.622192,3473.877930 1840.703857,3475.413574 1843.891235,3475.678467 
	C1849.844360,3476.173584 1855.858765,3475.986084 1861.847656,3475.986328 
	C2159.360596,3475.995361 2456.873779,3475.996094 2754.386719,3475.986816 
	C2760.375977,3475.986572 2766.365234,3475.864990 2774.225098,3475.585449 
	C2779.040527,3476.597412 2782.821533,3477.000244 2781.625488,3482.278076 
	C2777.846191,3481.971191 2774.764160,3480.421875 2771.602051,3480.235596 
	C2764.294189,3479.804932 2756.947266,3480.001221 2749.616211,3480.001221 
	C2453.021240,3479.995605 2156.426270,3479.998047 1859.831299,3479.983887 
	C1852.503418,3479.983643 1845.173584,3479.879395 1837.848877,3479.671631 
	C1834.935425,3479.589111 1832.890381,3478.177979 1833.613770,3473.921875 
z"/>
<path fill="#F1A507" opacity="1.000000" stroke="none" 
	d="
M2085.078613,5407.130371 
	C2084.191162,5395.625000 2091.143066,5388.765625 2102.996094,5384.446289 
	C2098.360352,5391.740234 2092.331055,5399.203125 2085.078613,5407.130371 
z"/>
<path fill="#973F02" opacity="1.000000" stroke="none" 
	d="
M2010.166870,5477.820801 
	C2012.092896,5479.292969 2013.085449,5481.444336 2015.282104,5483.917969 
	C2013.520386,5488.253418 2010.554810,5492.265137 2006.253540,5498.083496 
	C2002.599609,5489.022461 2007.717651,5484.052246 2010.166870,5477.820801 
z"/>
<path fill="#F1A507" opacity="1.000000" stroke="none" 
	d="
M2064.542480,5429.697754 
	C2063.871826,5425.820312 2065.349365,5422.155762 2071.139160,5420.297852 
	C2070.097900,5423.098145 2067.835449,5426.135254 2064.542480,5429.697754 
z"/>
<path fill="#973F02" opacity="1.000000" stroke="none" 
	d="
M4249.223633,811.309082 
	C4249.178223,808.999084 4250.059570,805.795715 4251.820312,801.659302 
	C4251.849609,803.956116 4251.000000,807.185913 4249.223633,811.309082 
z"/>
<path fill="#973F02" opacity="1.000000" stroke="none" 
	d="
M4257.069336,791.191284 
	C4256.744629,789.814331 4257.259277,787.666382 4258.669922,784.800232 
	C4259.013672,786.194824 4258.461426,788.307556 4257.069336,791.191284 
z"/>
<path fill="#F1A607" opacity="1.000000" stroke="none" 
	d="
M4241.458496,828.695068 
	C4241.065918,827.041016 4241.708496,824.507324 4243.241211,820.988953 
	C4243.585938,822.607971 4243.040039,825.211670 4241.458496,828.695068 
z"/>
<path fill="#973F02" opacity="1.000000" stroke="none" 
	d="
M4245.927734,819.837158 
	C4245.506836,818.331665 4246.082520,816.135742 4247.471680,813.095581 
	C4247.831543,814.549866 4247.377930,816.848328 4245.927734,819.837158 
z"/>
<path fill="#973F02" opacity="1.000000" stroke="none" 
	d="
M2049.032715,5376.690430 
	C2050.322021,5377.160645 2050.373535,5377.789551 2049.216797,5378.621094 
	C2047.987305,5378.178711 2047.915894,5377.520508 2049.032715,5376.690430 
z"/>
<path fill="#973F02" opacity="1.000000" stroke="none" 
	d="
M2185.032715,5024.690430 
	C2186.322021,5025.160645 2186.373535,5025.789551 2185.216797,5026.621094 
	C2183.987305,5026.178711 2183.915771,5025.520508 2185.032715,5024.690430 
z"/>
<path fill="#973F02" opacity="1.000000" stroke="none" 
	d="
M2053.752441,5364.822266 
	C2055.076660,5365.463379 2055.072510,5366.152832 2053.760742,5366.911621 
	C2052.436523,5366.291992 2052.427002,5365.588379 2053.752441,5364.822266 
z"/>
<path fill="#973F02" opacity="1.000000" stroke="none" 
	d="
M2106.421143,5229.141602 
	C2107.693359,5229.743652 2107.697510,5230.448242 2106.419434,5231.195312 
	C2105.099121,5230.562988 2105.104492,5229.897949 2106.421143,5229.141602 
z"/>
<path fill="#973F02" opacity="1.000000" stroke="none" 
	d="
M2109.284668,5220.722168 
	C2110.615479,5221.255371 2110.642090,5221.903809 2109.398682,5222.721680 
	C2108.133789,5222.224609 2108.084717,5221.540527 2109.284668,5220.722168 
z"/>
<path fill="#973F02" opacity="1.000000" stroke="none" 
	d="
M2114.184570,5208.996094 
	C2115.483398,5209.633301 2115.483643,5210.325195 2114.183105,5211.039062 
	C2112.859131,5210.389160 2112.860352,5209.719727 2114.184570,5208.996094 
z"/>
<path fill="#973F02" opacity="1.000000" stroke="none" 
	d="
M2117.032715,5200.690430 
	C2118.322021,5201.160645 2118.373535,5201.789551 2117.216797,5202.621094 
	C2115.987305,5202.178711 2115.915771,5201.520508 2117.032715,5200.690430 
z"/>
<path fill="#973F02" opacity="1.000000" stroke="none" 
	d="
M2121.751953,5188.823242 
	C2123.076416,5189.463867 2123.072266,5190.153320 2121.760498,5190.911621 
	C2120.436523,5190.291992 2120.426758,5189.589355 2121.751953,5188.823242 
z"/>
<path fill="#973F02" opacity="1.000000" stroke="none" 
	d="
M2174.421143,5053.141602 
	C2175.693359,5053.743652 2175.697510,5054.448242 2174.419434,5055.195312 
	C2173.099121,5054.562988 2173.104492,5053.897949 2174.421143,5053.141602 
z"/>
<path fill="#973F02" opacity="1.000000" stroke="none" 
	d="
M2177.284668,5044.722168 
	C2178.615479,5045.255371 2178.642090,5045.903809 2177.398682,5046.721680 
	C2176.133789,5046.224609 2176.084717,5045.540527 2177.284668,5044.722168 
z"/>
<path fill="#973F02" opacity="1.000000" stroke="none" 
	d="
M2182.184570,5032.996094 
	C2183.483398,5033.633301 2183.483643,5034.325195 2182.183105,5035.039062 
	C2180.859131,5034.389160 2180.860352,5033.719727 2182.184570,5032.996094 
z"/>
<path fill="#973F02" opacity="1.000000" stroke="none" 
	d="
M2333.499512,4640.739258 
	C2334.837158,4641.331543 2334.847900,4641.992676 2333.556396,4642.764648 
	C2332.279297,4642.202637 2332.252197,4641.513672 2333.499512,4640.739258 
z"/>
<path fill="#973F02" opacity="1.000000" stroke="none" 
	d="
M2046.184326,5384.996582 
	C2047.483398,5385.633789 2047.483643,5386.325684 2046.182861,5387.039062 
	C2044.859131,5386.390137 2044.860352,5385.720215 2046.184326,5384.996582 
z"/>
<path fill="#973F02" opacity="1.000000" stroke="none" 
	d="
M4253.664551,799.946228 
	C4253.012695,799.195862 4253.233887,797.907898 4254.320801,796.079468 
	C4254.969727,796.828796 4254.753906,798.118713 4253.664551,799.946228 
z"/>
<path fill="#973F02" opacity="1.000000" stroke="none" 
	d="
M2041.499512,5396.739258 
	C2042.836792,5397.330566 2042.847778,5397.991699 2041.556885,5398.764648 
	C2040.279541,5398.201660 2040.252197,5397.512695 2041.499512,5396.739258 
z"/>
<path fill="#973F02" opacity="1.000000" stroke="none" 
	d="
M2038.421021,5405.140625 
	C2039.693359,5405.743652 2039.697510,5406.448242 2038.419189,5407.195312 
	C2037.099487,5406.562500 2037.104858,5405.897461 2038.421021,5405.140625 
z"/>
<path fill="#F1A507" opacity="1.000000" stroke="none" 
	d="
M2080.854004,5411.470703 
	C2080.265625,5410.536133 2080.928955,5409.545898 2082.723633,5408.358398 
	C2083.568115,5409.361328 2082.985107,5410.446289 2080.854004,5411.470703 
z"/>
<path fill="#F1A507" opacity="1.000000" stroke="none" 
	d="
M2060.382324,5434.393555 
	C2059.937744,5433.730957 2060.369873,5433.036133 2061.552979,5432.162598 
	C2062.220459,5432.853027 2061.872314,5433.645508 2060.382324,5434.393555 
z"/>
<path fill="#F1A507" opacity="1.000000" stroke="none" 
	d="
M2056.552734,5438.745117 
	C2056.037598,5437.919434 2056.592773,5437.104004 2058.083984,5436.129883 
	C2058.866943,5437.007324 2058.401123,5437.935547 2056.552734,5438.745117 
z"/>
<path fill="#F1A507" opacity="1.000000" stroke="none" 
	d="
M2052.639160,5443.093750 
	C2052.047852,5442.241699 2052.612061,5441.313965 2054.224609,5440.188477 
	C2055.019043,5441.077637 2054.526123,5442.086426 2052.639160,5443.093750 
z"/>
<path fill="#F1A507" opacity="1.000000" stroke="none" 
	d="
M2048.843994,5447.380859 
	C2048.246094,5446.431152 2048.896973,5445.465332 2050.644043,5444.294922 
	C2051.556641,5445.311523 2051.007568,5446.402832 2048.843994,5447.380859 
z"/>
<path fill="#F1A507" opacity="1.000000" stroke="none" 
	d="
M2044.911987,5451.579102 
	C2044.320923,5450.662109 2044.982300,5449.641602 2046.784180,5448.386719 
	C2047.579590,5449.349121 2046.992920,5450.457031 2044.911987,5451.579102 
z"/>
<path fill="#F1A507" opacity="1.000000" stroke="none" 
	d="
M2041.110229,5456.044922 
	C2040.505005,5455.074219 2041.226318,5453.982910 2043.082642,5452.552734 
	C2043.317993,5453.248047 2042.724365,5454.484375 2041.110229,5456.044922 
z"/>
<path fill="#973F02" opacity="1.000000" stroke="none" 
	d="
M2012.110107,5472.511230 
	C2012.582153,5472.390137 2012.959473,5474.049805 2012.493408,5474.168945 
	C2012.027344,5474.287598 2011.637939,5472.632324 2012.110107,5472.511230 
z"/>
<path fill="#973F02" opacity="1.000000" stroke="none" 
	d="
M2477.032715,4268.690430 
	C2478.322021,4269.160645 2478.373535,4269.789551 2477.216797,4270.621094 
	C2475.987305,4270.178711 2475.915771,4269.520508 2477.032715,4268.690430 
z"/>
<path fill="#F1A607" opacity="1.000000" stroke="none" 
	d="
M4237.833984,837.965881 
	C4237.252930,837.198181 4237.706055,835.551025 4238.914062,832.855225 
	C4239.402344,833.566589 4239.135742,835.326538 4237.833984,837.965881 
z"/>
<path fill="#973F02" opacity="1.000000" stroke="none" 
	d="
M2773.988281,3500.932617 
	C2775.338623,3501.575439 2775.341309,3502.276855 2773.995605,3503.029297 
	C2772.681885,3502.383789 2772.679443,3501.687256 2773.988281,3500.932617 
z"/>
<path fill="#973F02" opacity="1.000000" stroke="none" 
	d="
M2769.032959,3512.689941 
	C2770.323730,3513.160156 2770.375000,3513.789307 2769.216797,3514.621094 
	C2767.987305,3514.178467 2767.915771,3513.520264 2769.032959,3512.689941 
z"/>
<path fill="#973F02" opacity="1.000000" stroke="none" 
	d="
M2766.183838,3520.997559 
	C2767.482666,3521.634521 2767.482910,3522.326904 2766.182373,3523.040527 
	C2764.858398,3522.390625 2764.859619,3521.720947 2766.183838,3520.997559 
z"/>
<path fill="#973F02" opacity="1.000000" stroke="none" 
	d="
M2761.499756,3532.738770 
	C2762.837158,3533.331055 2762.847656,3533.992432 2761.556641,3534.764648 
	C2760.279053,3534.202393 2760.251709,3533.513428 2761.499756,3532.738770 
z"/>
<path fill="#973F02" opacity="1.000000" stroke="none" 
	d="
M2758.422119,3541.154785 
	C2759.707520,3541.708252 2759.741699,3542.409424 2758.518066,3543.201660 
	C2757.944092,3543.260498 2757.319092,3542.290527 2757.319092,3542.290527 
	C2757.319092,3542.290527 2757.854248,3541.270264 2758.422119,3541.154785 
z"/>
<path fill="#973F02" opacity="1.000000" stroke="none" 
	d="
M2617.752441,3904.822266 
	C2619.076660,3905.463135 2619.072510,3906.152588 2617.760742,3906.911133 
	C2616.436279,3906.291504 2616.426758,3905.588379 2617.752441,3904.822266 
z"/>
<path fill="#973F02" opacity="1.000000" stroke="none" 
	d="
M2613.042236,3916.665771 
	C2614.330322,3917.142090 2614.380127,3917.761230 2613.218262,3918.564697 
	C2611.997070,3918.113037 2611.929443,3917.466309 2613.042236,3916.665771 
z"/>
<path fill="#973F02" opacity="1.000000" stroke="none" 
	d="
M2481.752441,4256.822266 
	C2483.076660,4257.463379 2483.072510,4258.152832 2481.760742,4258.911621 
	C2480.436523,4258.291992 2480.427002,4257.588379 2481.752441,4256.822266 
z"/>
<path fill="#973F02" opacity="1.000000" stroke="none" 
	d="
M2189.751953,5012.823242 
	C2191.076416,5013.463867 2191.072266,5014.153320 2189.760498,5014.911621 
	C2188.436523,5014.291992 2188.426758,5013.589355 2189.751953,5012.823242 
z"/>
<path fill="#973F02" opacity="1.000000" stroke="none" 
	d="
M2474.184570,4276.996094 
	C2475.483398,4277.633301 2475.483643,4278.325195 2474.183105,4279.039062 
	C2472.859131,4278.389160 2472.860352,4277.719727 2474.184570,4276.996094 
z"/>
<path fill="#973F02" opacity="1.000000" stroke="none" 
	d="
M2469.499512,4288.739258 
	C2470.837402,4289.331055 2470.848145,4289.992676 2469.556641,4290.764648 
	C2468.279053,4290.202148 2468.251709,4289.513184 2469.499512,4288.739258 
z"/>
<path fill="#973F02" opacity="1.000000" stroke="none" 
	d="
M2466.421143,4297.141602 
	C2467.693359,4297.743652 2467.697510,4298.448242 2466.419434,4299.195312 
	C2465.099121,4298.562988 2465.104492,4297.897949 2466.421143,4297.141602 
z"/>
<path fill="#973F02" opacity="1.000000" stroke="none" 
	d="
M2413.752441,4432.822266 
	C2415.076660,4433.463379 2415.072510,4434.152832 2413.760742,4434.911621 
	C2412.436523,4434.291992 2412.427002,4433.588379 2413.752441,4432.822266 
z"/>
<path fill="#973F02" opacity="1.000000" stroke="none" 
	d="
M2409.032715,4444.690430 
	C2410.322021,4445.160645 2410.373535,4445.789551 2409.216797,4446.621094 
	C2407.987305,4446.178711 2407.915771,4445.520508 2409.032715,4444.690430 
z"/>
<path fill="#973F02" opacity="1.000000" stroke="none" 
	d="
M2406.184570,4452.996094 
	C2407.483398,4453.633301 2407.483643,4454.325195 2406.183105,4455.039062 
	C2404.859131,4454.389160 2404.860352,4453.719727 2406.184570,4452.996094 
z"/>
<path fill="#973F02" opacity="1.000000" stroke="none" 
	d="
M2401.499512,4464.739258 
	C2402.837402,4465.331055 2402.848145,4465.992676 2401.556641,4466.764648 
	C2400.279053,4466.202148 2400.251709,4465.513184 2401.499512,4464.739258 
z"/>
<path fill="#973F02" opacity="1.000000" stroke="none" 
	d="
M2398.421143,4473.141602 
	C2399.693359,4473.743652 2399.697510,4474.448242 2398.419434,4475.195312 
	C2397.099121,4474.562988 2397.104492,4473.897949 2398.421143,4473.141602 
z"/>
<path fill="#973F02" opacity="1.000000" stroke="none" 
	d="
M2345.988770,4608.932617 
	C2347.339111,4609.575195 2347.341797,4610.276367 2345.996094,4611.028320 
	C2344.682373,4610.382324 2344.679932,4609.686523 2345.988770,4608.932617 
z"/>
<path fill="#973F02" opacity="1.000000" stroke="none" 
	d="
M2341.032715,4620.690430 
	C2342.322021,4621.160645 2342.373535,4621.789551 2341.216797,4622.621094 
	C2339.987305,4622.178711 2339.915771,4621.520508 2341.032715,4620.690430 
z"/>
<path fill="#973F02" opacity="1.000000" stroke="none" 
	d="
M2338.184570,4628.996094 
	C2339.483398,4629.633301 2339.483643,4630.325195 2338.183105,4631.039062 
	C2336.859131,4630.389160 2336.860352,4629.719727 2338.184570,4628.996094 
z"/>
<path fill="#973F02" opacity="1.000000" stroke="none" 
	d="
M2330.422363,4649.153809 
	C2331.707520,4649.708008 2331.741455,4650.409180 2330.518066,4651.201172 
	C2329.944336,4651.260254 2329.319336,4650.290039 2329.319336,4650.290039 
	C2329.319336,4650.290039 2329.854736,4649.269531 2330.422363,4649.153809 
z"/>
<path fill="#FFED19" opacity="1.000000" stroke="none" 
	d="
M3900.671143,1248.603271 
	C3885.979492,1265.921265 3872.211914,1282.160278 3858.374268,1298.338989 
	C3839.776855,1320.082520 3821.081299,1341.742065 3802.511475,1363.508789 
	C3790.423828,1377.677734 3778.513916,1391.998169 3766.469482,1406.203979 
	C3756.571777,1417.877319 3746.595703,1429.484131 3736.650146,1441.116821 
	C3713.738770,1467.916138 3690.915527,1494.791626 3667.874268,1521.478638 
	C3655.697510,1535.582153 3643.003418,1549.238403 3630.790283,1563.311157 
	C3618.583252,1577.377197 3606.757324,1591.773315 3594.630127,1605.909546 
	C3582.932373,1619.545288 3571.032959,1633.008057 3559.276611,1646.593506 
	C3543.606201,1664.702271 3528.091553,1682.947144 3512.314941,1700.962524 
	C3499.161377,1715.982788 3485.599365,1730.645752 3472.450684,1745.670044 
	C3457.995361,1762.186768 3443.858887,1778.982056 3429.482666,1795.568604 
	C3418.150391,1808.643433 3406.636230,1821.560303 3395.254395,1834.592651 
	C3378.188477,1854.133667 3361.273926,1873.807983 3344.095703,1893.249512 
	C3329.994141,1909.209351 3315.472168,1924.797607 3301.375977,1940.762085 
	C3286.848145,1957.215576 3272.613525,1973.927979 3258.240234,1990.517944 
	C3255.623779,1993.537354 3252.950439,1996.506714 3250.314209,1999.508789 
	C3232.316162,2020.002808 3214.360352,2040.534302 3196.311279,2060.983154 
	C3183.980713,2074.953125 3171.464111,2088.758789 3159.132080,2102.727295 
	C3140.640381,2123.673340 3122.351074,2144.799072 3103.761719,2165.657471 
	C3088.705566,2182.550781 3073.211914,2199.053955 3058.133301,2215.927734 
	C3040.404053,2235.767822 3022.925293,2255.832031 3005.314941,2275.778564 
	C2993.864990,2288.747803 2982.489990,2301.786133 2970.873535,2314.605225 
	C2954.335693,2332.855225 2937.451904,2350.793213 2921.002686,2369.121826 
	C2903.676025,2388.428223 2886.685791,2408.036377 2869.552734,2427.516357 
	C2868.232666,2429.017334 2866.989014,2430.587646 2865.632568,2432.054688 
	C2847.103271,2452.094971 2828.353516,2471.936523 2810.081543,2492.208496 
	C2793.159912,2510.982422 2776.745850,2530.213867 2760.105957,2549.242188 
	C2759.228516,2550.245361 2758.345947,2551.244873 2757.438965,2552.221680 
	C2737.963623,2573.201172 2718.280762,2593.992676 2699.066895,2615.208984 
	C2682.102051,2633.941650 2665.659668,2653.148193 2648.986084,2672.144775 
	C2647.667480,2673.647217 2646.384277,2675.182617 2645.019287,2676.641357 
	C2623.182861,2699.975830 2601.136963,2723.117676 2579.547852,2746.678467 
	C2557.975342,2770.220947 2536.857178,2794.179932 2515.539551,2817.956055 
	C2515.094727,2818.452393 2514.653076,2818.951904 2514.198486,2819.439697 
	C2494.223633,2840.865234 2474.133301,2862.184326 2454.299805,2883.739746 
	C2427.716309,2912.631104 2401.331299,2941.705078 2374.861084,2970.700439 
	C2374.411621,2971.192871 2373.965088,2971.687744 2373.508057,2972.172852 
	C2350.225830,2996.891113 2326.997314,3021.660156 2303.645020,3046.312012 
	C2275.709229,3075.802490 2246.741943,3104.380615 2219.977051,3134.893799 
	C2200.164062,3157.481445 2178.709229,3178.351074 2158.166992,3200.156982 
	C2144.479980,3214.686279 2131.252197,3229.647949 2117.583008,3244.194336 
	C2115.119873,3246.815674 2111.510254,3248.358887 2105.089111,3252.613525 
	C2107.030518,3246.562012 2107.150635,3243.875488 2108.525146,3242.246582 
	C2132.983154,3213.262695 2157.727783,3184.520020 2182.124756,3155.484863 
	C2198.387695,3136.130127 2214.063477,3116.283203 2230.255127,3096.867676 
	C2246.875244,3076.938477 2263.851562,3057.307129 2280.583252,3037.470459 
	C2299.884033,3014.588135 2319.059326,2991.599854 2338.345215,2968.704834 
	C2347.347656,2958.018066 2356.412354,2947.381836 2365.571045,2936.828613 
	C2393.919189,2904.163818 2422.368896,2871.586914 2450.697021,2838.905029 
	C2475.970703,2809.746826 2501.256348,2780.597168 2526.310791,2751.250977 
	C2545.747803,2728.484619 2564.691650,2705.297363 2584.134033,2682.535400 
	C2596.234863,2668.368652 2608.980713,2654.755127 2621.209473,2640.695068 
	C2635.177734,2624.635010 2648.850586,2608.318848 2662.732422,2592.183350 
	C2672.713135,2580.582520 2682.730957,2569.011230 2692.902832,2557.578613 
	C2706.617188,2542.164551 2720.659668,2527.040039 2734.257324,2511.524902 
	C2747.846680,2496.019531 2761.016602,2480.147705 2774.455322,2464.509277 
	C2784.429688,2452.902100 2794.441406,2441.323730 2804.613037,2429.889893 
	C2818.326416,2414.474365 2832.353516,2399.337158 2845.981934,2383.847900 
	C2861.360352,2366.370361 2876.418945,2348.611816 2891.666260,2331.018555 
	C2901.252686,2319.957520 2910.822998,2308.879395 2920.591309,2297.979736 
	C2935.250244,2281.623779 2950.230957,2265.554443 2964.790039,2249.111084 
	C2980.221436,2231.681885 2995.245850,2213.892822 3010.586914,2196.382324 
	C3023.304688,2181.866211 3036.242676,2167.543457 3049.049316,2153.104980 
	C3068.915039,2130.707520 3088.644775,2108.187744 3108.635498,2085.902588 
	C3124.635742,2068.065430 3141.080322,2050.626465 3157.069092,2032.779297 
	C3173.490967,2014.448730 3189.601807,1995.839600 3205.840332,1977.344849 
	C3207.597656,1975.343140 3209.233887,1973.232544 3211.036133,1971.273560 
	C3228.612549,1952.167480 3246.327148,1933.187134 3263.777344,1913.967041 
	C3288.826416,1886.377197 3313.695801,1858.624390 3338.626221,1830.927124 
	C3361.773438,1805.210938 3384.989258,1779.555542 3408.006592,1753.723755 
	C3425.708252,1733.858276 3442.988281,1713.615967 3460.753174,1693.808105 
	C3477.195801,1675.474609 3494.119141,1657.573242 3510.676270,1639.341431 
	C3533.936035,1613.729370 3557.053711,1587.988403 3580.232422,1562.302368 
	C3580.678711,1561.807495 3581.119629,1561.307129 3581.573242,1560.818726 
	C3600.598877,1540.330078 3619.759521,1519.964844 3638.618164,1499.323853 
	C3661.955078,1473.781860 3685.040771,1448.010498 3708.236572,1422.339478 
	C3709.130127,1421.350342 3710.022705,1420.359497 3710.937744,1419.390137 
	C3736.073975,1392.755859 3761.416260,1366.312012 3786.293945,1339.438232 
	C3809.795654,1314.050903 3832.679932,1288.092407 3856.097900,1262.626465 
	C3866.470459,1251.347412 3877.613281,1240.780884 3888.189697,1229.684814 
	C3913.917480,1202.693481 3940.482422,1176.415894 3964.859375,1148.248779 
	C3983.659912,1126.524414 4004.319092,1106.746216 4023.876465,1085.844971 
	C4035.693848,1073.215942 4047.052734,1060.158447 4058.851318,1047.511475 
	C4061.301758,1044.884888 4063.761230,1040.778320 4069.808838,1043.802002 
	C4068.943848,1045.943115 4068.547607,1048.560425 4067.092529,1050.283447 
	C4043.049561,1078.748169 4018.737793,1106.986084 3994.764893,1135.509399 
	C3969.938721,1165.048706 3945.416992,1194.843506 3920.752686,1224.519043 
	C3914.374512,1232.193237 3907.961182,1239.838745 3900.671143,1248.603271 
z"/>
<path fill="#FFED19" opacity="1.000000" stroke="none" 
	d="
M3364.385498,2828.023926 
	C3380.928223,2827.846191 3395.473389,2827.835938 3410.066895,2825.139404 
	C3420.417236,2823.227051 3431.313232,2824.245361 3441.966797,2824.002930 
	C3461.242920,2823.564941 3480.584229,2825.058350 3499.709717,2820.782715 
	C3505.453125,2819.498779 3511.657959,2820.156250 3517.652100,2820.137695 
	C3562.304688,2819.999512 3606.958496,2820.068604 3651.608887,2819.701172 
	C3662.205322,2819.614014 3672.787109,2818.075195 3683.381592,2817.289307 
	C3689.352539,2816.845947 3695.334229,2816.325195 3701.314941,2816.275391 
	C3717.975098,2816.136475 3734.647217,2815.873291 3751.295654,2816.338623 
	C3763.893799,2816.691162 3776.458008,2818.163086 3789.046875,2818.990234 
	C3795.687256,2819.426758 3802.347168,2819.755127 3808.999512,2819.778809 
	C3848.986572,2819.921143 3888.974609,2819.910645 3928.961670,2820.059814 
	C3944.262451,2820.116943 3959.472168,2820.226562 3974.738037,2822.936035 
	C3985.755127,2824.891357 3997.322998,2823.748291 4008.645752,2823.975586 
	C4028.589355,2824.376221 4048.609131,2822.848145 4068.372314,2827.354980 
	C4073.470459,2828.517578 4078.992188,2827.890869 4084.321045,2827.960693 
	C4098.296387,2828.143555 4112.236816,2827.790039 4126.075195,2831.033936 
	C4132.441895,2832.526123 4139.342773,2831.641113 4145.983398,2832.096436 
	C4150.459961,2832.402832 4154.904785,2833.167480 4159.109863,2833.695312 
	C4159.627441,2838.432617 4156.974121,2839.337891 4154.367188,2839.491943 
	C4127.157227,2841.100586 4099.939453,2842.583008 4072.722656,2844.072266 
	C4068.731934,2844.290771 4064.584961,2843.722900 4060.762939,2844.609131 
	C4041.026123,2849.183838 4020.993164,2847.750244 4001.044189,2848.016357 
	C3986.401855,2848.211914 3971.791748,2847.858398 3957.281494,2851.053223 
	C3950.888428,2852.460693 3944.012207,2851.836914 3937.354736,2851.856445 
	C3885.371094,2852.007080 3833.386963,2851.980225 3781.404785,2852.295410 
	C3772.135742,2852.351562 3762.887451,2854.125488 3753.607422,2854.422607 
	C3739.668701,2854.868652 3725.701172,2855.068359 3711.763916,2854.693359 
	C3701.160645,2854.407715 3690.590332,2852.382080 3679.997559,2852.309082 
	C3628.015625,2851.951172 3576.030273,2852.132812 3524.048340,2851.764404 
	C3513.457520,2851.689209 3502.886230,2849.949463 3492.290039,2849.202881 
	C3484.324951,2848.641846 3476.337891,2848.322998 3468.354980,2848.102295 
	C3445.094482,2847.459229 3421.715820,2849.567139 3398.640137,2844.573486 
	C3394.159424,2843.603760 3389.342773,2844.131592 3384.679688,2844.066650 
	C3368.713623,2843.844727 3352.820557,2844.081543 3336.924316,2840.935303 
	C3327.261963,2839.022949 3316.995605,2840.296875 3307.020752,2839.759033 
	C3303.436768,2839.565918 3298.835205,2841.160889 3296.833740,2836.126953 
	C3297.546387,2835.097412 3298.090332,2833.417236 3298.936523,2833.247803 
	C3302.174805,2832.599609 3305.504639,2832.359375 3308.810547,2832.104736 
	C3326.698730,2830.725830 3344.590576,2829.388428 3364.385498,2828.023926 
z"/>
<path fill="#FFED19" opacity="1.000000" stroke="none" 
	d="
M4083.970703,1023.978760 
	C4083.895020,1024.625610 4083.904785,1025.298706 4083.718506,1025.911987 
	C4083.535645,1026.513794 4083.153564,1027.054932 4082.859375,1027.622803 
	C4082.875000,1026.706543 4082.890625,1025.790161 4083.453125,1024.436890 
	C4084.000000,1024.000000 4083.970703,1023.978699 4083.970703,1023.978760 
z"/>
<path fill="#FFED19" opacity="1.000000" stroke="none" 
	d="
M4084.010254,1024.013672 
	C4084.020752,1024.027466 4084.653320,1022.985718 4084.653320,1022.985718 
	C4084.653320,1022.985718 4084.579834,1023.733948 4084.275391,1023.856323 
	C4083.970703,1023.978699 4084.000000,1024.000000 4084.010254,1024.013672 
z"/>
<path fill="#FFED19" opacity="1.000000" stroke="none" 
	d="
M2091.949219,3267.960938 
	C2091.949219,3267.960938 2092.657471,3266.845703 2092.657471,3266.845703 
	C2092.657471,3266.845703 2092.664551,3267.732666 2092.331543,3267.866211 
	C2091.998779,3268.000000 2091.949219,3267.960938 2091.949219,3267.960938 
z"/>
<path fill="#FFED19" opacity="1.000000" stroke="none" 
	d="
M2092.016113,3268.024414 
	C2092.033203,3268.048828 2091.293701,3269.109131 2091.293701,3269.109131 
	C2091.293701,3269.109131 2091.321533,3268.249512 2091.635254,3268.105225 
	C2091.949219,3267.960938 2091.998779,3268.000000 2092.016113,3268.024414 
z"/>
</svg>